<svg width="225" height="68" viewBox="0 0 225 68" fill="none" xmlns="http://www.w3.org/2000/svg">
<path d="M60.9375 14.9688H21.0625C18.0595 14.9688 15.625 17.4032 15.625 20.4062V47.5938C15.625 50.5968 18.0595 53.0312 21.0625 53.0312H60.9375C63.9405 53.0312 66.375 50.5968 66.375 47.5938V20.4062C66.375 17.4032 63.9405 14.9688 60.9375 14.9688Z" fill="#2776DB"/>
<path d="M40.7284 27.3581C54.7941 24.4281 55.1664 32.6584 55.3067 34.1813C55.4469 35.7041 56.4887 45.444 38.344 47.6787C28.5426 47.6242 25.5679 43.8549 26.2272 38.8838C26.8865 33.9127 30.5387 29.4808 40.7284 27.3581Z" fill="#1D4373"/>
<path d="M46.4196 23.3195C56.6977 22.4616 60.3666 27.4176 60.3666 29.7241C61.0227 31.9772 58.0488 42.2858 43.4559 42.7135C34.1475 42.5158 32.273 38.0417 32.8237 33.5462C33.3744 29.0507 36.6481 24.1351 46.4196 23.3195Z" fill="#F5F1E6"/>
<path d="M78.1055 16.9414C77.9427 20.1641 77.8044 23.3623 77.6904 26.5361C77.5765 29.6937 77.4951 32.8675 77.4463 36.0576C77.8532 36.0902 78.2601 36.1064 78.667 36.1064C79.0902 36.1064 79.5052 36.1064 79.9121 36.1064C80.4329 36.1064 80.9619 36.0983 81.499 36.082C82.0524 36.0658 82.6058 36.0413 83.1592 36.0088C83.1917 35.2926 83.208 34.5928 83.208 33.9092C83.208 33.2093 83.208 32.4932 83.208 31.7607C83.208 29.2868 83.1836 26.821 83.1348 24.3633C83.0859 21.9056 83.0046 19.4316 82.8906 16.9414H88.8965C88.6035 20.8639 88.3757 24.762 88.2129 28.6357C88.0664 32.4932 87.9932 36.3831 87.9932 40.3057C87.9932 42.2262 88.0176 44.1387 88.0664 46.043C88.1152 47.9473 88.1803 49.8678 88.2617 51.8047H82.6953C82.7767 49.8678 82.8499 47.9391 82.915 46.0186C82.9801 44.098 83.0452 42.1774 83.1104 40.2568C82.1826 40.208 81.2549 40.1673 80.3271 40.1348C79.4157 40.0859 78.5042 40.0615 77.5928 40.0615H77.3975V45.0908C77.3975 46.2301 77.3975 47.3532 77.3975 48.46C77.3975 49.5667 77.4137 50.6816 77.4463 51.8047H71.8555C71.9368 49.4609 71.9857 47.1497 72.002 44.8711C72.0345 42.5762 72.0508 40.2731 72.0508 37.9619C72.0508 30.9632 71.9043 23.9564 71.6113 16.9414H78.1055ZM101.763 52.1953C101.681 51.0723 101.6 49.9411 101.519 48.8018C101.453 47.6624 101.372 46.515 101.274 45.3594C100.558 45.3105 99.8665 45.2617 99.1992 45.2129C98.5319 45.1641 97.8564 45.1396 97.1729 45.1396H96.8555C96.7741 46.3115 96.7008 47.4671 96.6357 48.6064C96.5706 49.7458 96.5137 50.877 96.4648 52L90.3613 51.9023C91.3704 46.0918 92.2819 40.2975 93.0957 34.5195C93.9095 28.7415 94.6012 22.9147 95.1709 17.0391L102.52 17.1611C103.138 22.9717 103.879 28.7497 104.741 34.4951C105.62 40.2243 106.646 45.9941 107.817 51.8047L101.763 52.1953ZM98.9062 23.1914C98.5807 26.1862 98.2715 29.1729 97.9785 32.1514C97.6855 35.1299 97.417 38.1328 97.1729 41.1602C97.5146 41.1927 97.8646 41.209 98.2227 41.209C98.5807 41.209 98.9469 41.209 99.3213 41.209H100.908C100.632 38.1816 100.322 35.1787 99.9805 32.2002C99.6387 29.2217 99.2806 26.2188 98.9062 23.1914ZM125.737 34.9102C125.737 38.1816 125.509 40.9567 125.054 43.2354C124.614 45.514 124.012 47.3695 123.247 48.8018C122.482 50.2178 121.579 51.2513 120.537 51.9023C119.495 52.5371 118.381 52.8545 117.192 52.8545C116.004 52.8545 114.889 52.5534 113.848 51.9512C112.806 51.3327 111.895 50.3236 111.113 48.9238C110.332 47.5241 109.714 45.6768 109.258 43.3818C108.818 41.0869 108.599 38.263 108.599 34.9102C108.599 31.541 108.818 28.6846 109.258 26.3408C109.714 23.9808 110.332 22.0684 111.113 20.6035C111.895 19.1224 112.806 18.0563 113.848 17.4053C114.889 16.738 116.004 16.4043 117.192 16.4043C118.381 16.4043 119.495 16.7298 120.537 17.3809C121.579 18.0156 122.482 19.0654 123.247 20.5303C124.012 21.9951 124.614 23.9076 125.054 26.2676C125.509 28.6113 125.737 31.4922 125.737 34.9102ZM120.293 34.9102C120.293 32.3548 120.212 30.1982 120.049 28.4404C119.886 26.6826 119.658 25.2585 119.365 24.168C119.089 23.0612 118.763 22.2637 118.389 21.7754C118.014 21.2871 117.616 21.043 117.192 21.043C116.753 21.043 116.338 21.2952 115.947 21.7998C115.573 22.2881 115.239 23.0856 114.946 24.1924C114.67 25.2829 114.45 26.7152 114.287 28.4893C114.124 30.2471 114.043 32.3874 114.043 34.9102C114.043 37.4167 114.124 39.5244 114.287 41.2334C114.45 42.9261 114.67 44.2933 114.946 45.335C115.239 46.3604 115.573 47.0928 115.947 47.5322C116.338 47.9717 116.753 48.1914 117.192 48.1914C117.616 48.1914 118.014 47.9635 118.389 47.5078C118.763 47.0358 119.089 46.279 119.365 45.2373C119.658 44.1794 119.886 42.804 120.049 41.1113C120.212 39.4186 120.293 37.3516 120.293 34.9102ZM140.728 43.3574C140.728 44.6432 140.589 45.7744 140.312 46.751C140.052 47.7113 139.702 48.5413 139.263 49.2412C138.84 49.9248 138.359 50.4945 137.822 50.9502C137.285 51.3896 136.732 51.7396 136.162 52C135.609 52.2604 135.072 52.4395 134.551 52.5371C134.046 52.651 133.607 52.708 133.232 52.708C133.037 52.708 132.769 52.6917 132.427 52.6592C132.085 52.6429 131.694 52.5941 131.255 52.5127C130.815 52.4313 130.327 52.3092 129.79 52.1465C129.269 52 128.716 51.7884 128.13 51.5117L128.398 45.3594C129.359 46.1732 130.213 46.7184 130.962 46.9951C131.727 47.2718 132.37 47.4102 132.891 47.4102C133.9 47.4102 134.657 47.0439 135.161 46.3115C135.682 45.5791 135.942 44.627 135.942 43.4551C135.942 42.6738 135.747 41.8031 135.356 40.8428C134.982 39.8662 134.307 38.8164 133.33 37.6934C132.663 36.9121 131.971 36.0983 131.255 35.252C130.539 34.4056 129.888 33.5023 129.302 32.542C128.716 31.5817 128.236 30.5482 127.861 29.4414C127.487 28.3346 127.3 27.1383 127.3 25.8525C127.3 24.2249 127.52 22.8171 127.959 21.6289C128.415 20.4408 129.017 19.4561 129.766 18.6748C130.514 17.8936 131.369 17.3158 132.329 16.9414C133.306 16.5508 134.323 16.3555 135.381 16.3555C136.309 16.3555 137.253 16.4857 138.213 16.7461C139.189 16.9902 140.166 17.3727 141.143 17.8936L140.679 24.0459C140.256 23.5088 139.808 23.0856 139.336 22.7764C138.88 22.4508 138.433 22.2067 137.993 22.0439C137.57 21.8812 137.171 21.7754 136.797 21.7266C136.439 21.6777 136.138 21.6533 135.894 21.6533C135.422 21.6533 134.982 21.7754 134.575 22.0195C134.185 22.2474 133.843 22.5648 133.55 22.9717C133.273 23.3623 133.053 23.8343 132.891 24.3877C132.728 24.9248 132.646 25.4945 132.646 26.0967C132.646 27.0244 132.842 27.8626 133.232 28.6113C133.639 29.36 134.144 30.1006 134.746 30.833C135.348 31.5654 135.991 32.3223 136.675 33.1035C137.375 33.8685 138.026 34.7393 138.628 35.7158C139.23 36.6761 139.727 37.7829 140.117 39.0361C140.524 40.2731 140.728 41.7135 140.728 43.3574ZM156.182 52.0488C155.27 52.0163 154.383 51.9919 153.521 51.9756C152.674 51.9593 151.828 51.9512 150.981 51.9512C149.712 51.9512 148.459 51.9674 147.222 52C145.985 52.0488 144.707 52.1139 143.389 52.1953C143.535 49.168 143.649 46.1732 143.73 43.2109C143.828 40.2324 143.877 37.2295 143.877 34.2021C143.877 31.305 143.836 28.4323 143.755 25.584C143.69 22.7194 143.568 19.8385 143.389 16.9414C143.551 16.9577 143.739 16.9658 143.95 16.9658C144.129 16.9821 144.349 16.9902 144.609 16.9902C144.87 16.9902 145.163 16.9902 145.488 16.9902C146.009 16.9902 146.571 16.9821 147.173 16.9658C147.791 16.9333 148.41 16.8926 149.028 16.8438C148.817 19.1875 148.662 21.6533 148.564 24.2412C148.483 26.8291 148.426 29.4495 148.394 32.1025C148.377 34.7393 148.361 37.376 148.345 40.0127C148.345 42.6331 148.32 45.1641 148.271 47.6055C149.606 47.5729 150.9 47.5078 152.153 47.4102C153.423 47.3125 154.766 47.1579 156.182 46.9463V52.0488ZM168.12 52.1953C168.039 51.0723 167.957 49.9411 167.876 48.8018C167.811 47.6624 167.729 46.515 167.632 45.3594C166.916 45.3105 166.224 45.2617 165.557 45.2129C164.889 45.1641 164.214 45.1396 163.53 45.1396H163.213C163.132 46.3115 163.058 47.4671 162.993 48.6064C162.928 49.7458 162.871 50.877 162.822 52L156.719 51.9023C157.728 46.0918 158.639 40.2975 159.453 34.5195C160.267 28.7415 160.959 22.9147 161.528 17.0391L168.877 17.1611C169.495 22.9717 170.236 28.7497 171.099 34.4951C171.978 40.2243 173.003 45.9941 174.175 51.8047L168.12 52.1953ZM165.264 23.1914C164.938 26.1862 164.629 29.1729 164.336 32.1514C164.043 35.1299 163.774 38.1328 163.53 41.1602C163.872 41.1927 164.222 41.209 164.58 41.209C164.938 41.209 165.304 41.209 165.679 41.209H167.266C166.989 38.1816 166.68 35.1787 166.338 32.2002C165.996 29.2217 165.638 26.2188 165.264 23.1914ZM193.462 16.7949C193.25 20.0664 193.088 23.3135 192.974 26.5361C192.86 29.7425 192.803 32.9652 192.803 36.2041C192.803 38.7269 192.835 41.2171 192.9 43.6748C192.982 46.1325 193.112 48.6064 193.291 51.0967L188.359 50.9502C187.708 48.8343 187.065 46.7347 186.431 44.6514C185.812 42.5518 185.194 40.4684 184.575 38.4014C183.957 36.3343 183.322 34.2754 182.671 32.2246C182.036 30.1738 181.377 28.1312 180.693 26.0967C180.742 30.3447 180.815 34.5846 180.913 38.8164C181.027 43.0319 181.222 47.2393 181.499 51.4385L175.859 51.3896C176.055 46.1976 176.152 40.9811 176.152 35.7402C176.152 32.5176 176.12 29.3275 176.055 26.1699C175.99 23.0124 175.892 19.8385 175.762 16.6484L182.598 16.7949C183.428 20.3757 184.315 24.0133 185.259 27.708C186.203 31.4027 187.204 35.0485 188.262 38.6455C188.148 34.9671 187.977 31.2887 187.749 27.6104C187.537 23.9157 187.301 20.2943 187.041 16.7461L193.462 16.7949ZM211.895 35.3984C211.895 37.9212 211.707 40.1022 211.333 41.9414C210.975 43.7643 210.495 45.3187 209.893 46.6045C209.29 47.8903 208.607 48.932 207.842 49.7295C207.093 50.527 206.328 51.1455 205.547 51.585C204.766 52.0244 204.009 52.3174 203.276 52.4639C202.544 52.6266 201.901 52.708 201.348 52.708L196.343 52.293C196.554 48.9727 196.717 45.6361 196.831 42.2832C196.945 38.9141 197.002 35.5205 197.002 32.1025C197.002 29.5146 196.969 26.9512 196.904 24.4121C196.839 21.873 196.742 19.334 196.611 16.7949C197.002 16.7624 197.384 16.738 197.759 16.7217C198.133 16.7054 198.499 16.6973 198.857 16.6973C201.559 16.6973 203.757 17.1611 205.449 18.0889C207.142 19.0003 208.46 20.2861 209.404 21.9463C210.365 23.5902 211.016 25.5596 211.357 27.8545C211.715 30.1331 211.895 32.6478 211.895 35.3984ZM206.914 34.7393C206.914 33.9417 206.898 33.0954 206.865 32.2002C206.833 31.2887 206.759 30.3854 206.646 29.4902C206.548 28.5951 206.393 27.7243 206.182 26.8779C205.97 26.0316 205.693 25.2585 205.352 24.5586C205.01 23.8424 204.587 23.2321 204.082 22.7275C203.594 22.223 203 21.8649 202.3 21.6533C202.202 23.4437 202.113 25.1934 202.031 26.9023C201.966 28.5951 201.909 30.2715 201.86 31.9316C201.812 33.5918 201.771 35.2438 201.738 36.8877C201.722 38.5153 201.714 40.151 201.714 41.7949C201.714 42.8691 201.714 43.9596 201.714 45.0664C201.714 46.1569 201.73 47.2718 201.763 48.4111C202.511 48.3298 203.162 48.0449 203.716 47.5566C204.269 47.0684 204.733 46.458 205.107 45.7256C205.498 44.9769 205.807 44.1387 206.035 43.2109C206.279 42.2669 206.466 41.3066 206.597 40.3301C206.727 39.3372 206.808 38.3607 206.841 37.4004C206.89 36.4401 206.914 35.5531 206.914 34.7393Z" fill="#2776DB"/>
</svg>
